#!OML:ASF F:\VICON\USERDATA\INSTALL\rory3\rory3.ASF
:FULLY-SPECIFIED
:DEGREES
342
root -1.40853 18.4075 -3.16482 -160.093 2.08922 -171.373
lowerback -11.9112 2.54115 7.62699
upperback -12.6633 5.66931 2.84048
thorax -6.63066 3.50321 -1.01109
lowerneck -9.92671 2.2281 -1.3473
upperneck 39.5412 -2.33049 2.09605
head 15.6525 -2.76367 0.258711
rclavicle 3.03147e-014 -7.95139e-016
rhumerus -372.335 -1.98356 369.234
rradius 17.8724
rwrist 29.8755
rhand -18.0267 373.221
rfingers 7.12502
rthumb 8.24455 -16.5978
lclavicle 3.03147e-014 -7.95139e-016
lhumerus -6.831 -13.3174 -3.24295
lradius 22.5969
lwrist -45.1842
lhand -28.8537 0.6043
lfingers 7.12502
lthumb -2.21043 30.5726
rfemur -60.933 -101.953 5.249
rtibia 138.215
rfoot 57.3331 -35.5346
rtoes 55.0251
lfemur -35.243 1.54127 -19.9593
ltibia 38.093
lfoot -6.73558 29.4005
ltoes 29.2285
343
root -1.40614 18.396 -3.24527 -160.267 2.06565 -171.365
lowerback -11.5511 2.49555 7.50176
upperback -12.6982 5.66599 2.96076
thorax -6.88754 3.50749 -0.849518
lowerneck -9.87236 2.39409 -1.5244
upperneck 40.2711 -2.339 2.14732
head 16.023 -2.87304 0.281247
rclavicle 1.46107e-014 -7.95139e-015
rhumerus -370.444 -6.86167 369.951
rradius 17.6078
rwrist 31.9948
rhand -16.0493 368.95
rfingers 7.12502
rthumb 10.1526 -20.785
lclavicle 1.46107e-014 -7.95139e-015
lhumerus -5.52343 -11.1177 -3.84152
lradius 21.7116
lwrist -45.2683
lhand -29.4304 0.494146
lfingers 7.12502
lthumb -2.76741 30.4559
rfemur -55.7116 -99.4644 0.379206
rtibia 137.381
rfoot 56.783 -35.8933
rtoes 54.5667
lfemur -34.7333 1.78555 -19.967
ltibia 38.0506
lfoot -5.49122 29.0413
ltoes 27.1814
344
root -1.39995 18.3815 -3.31773 -160.696 1.80184 -171.677
lowerback -10.9358 2.33306 7.01487
upperback -12.5142 5.44736 3.10877
thorax -7.0629 3.40264 -0.479288
lowerneck -10.1761 2.52143 -1.81502
upperneck 40.793 -2.19293 2.1215
head 16.3732 -2.89612 0.326118
rclavicle 2.94698e-014 3.77691e-014
rhumerus -368.417 -13.1113 370.463
rradius 17.3672
rwrist 34.4634
rhand -14.1685 365.428
rfingers 7.12502
rthumb 11.9666 -24.2098
lclavicle 2.94698e-014 3.77691e-014
lhumerus -4.40755 -10.7734 -4.04228
lradius 22.2174
lwrist -40.6563
lhand -26.9027 3.78147
lfingers 7.12502
lthumb -0.326153 33.761
rfemur -50.6968 -97.3884 -4.42839
rtibia 136.489
rfoot 56.5481 -35.3707
rtoes 53.9901
lfemur -33.9302 1.81363 -20.2129
ltibia 37.9631
lfoot -5.73004 28.3851
ltoes 28.298
345
root -1.37648 18.3742 -3.37912 -161.391 1.59424 -172.263
lowerback -10.1385 2.13921 6.02438
upperback -12.0883 5.10692 3.25206
thorax -7.08782 3.2424 0.162161
lowerneck -10.8321 2.61579 -2.0239
upperneck 41.4244 -2.02988 1.92208
head 16.8787 -2.91346 0.278494
rclavicle -1.09332e-014 -8.34896e-015
rhumerus -366.318 -19.1485 370.463
rradius 17.2566
rwrist 35.9484
rhand -12.6034 361.692
rfingers 7.12502
rthumb 13.4755 -27.8524
lclavicle -1.09332e-014 -8.34896e-015
lhumerus -3.42051 -9.23394 -4.29761
lradius 22.1455
lwrist -38.537
lhand -25.9784 6.85081
lfingers 7.12502
lthumb 0.56656 36.8298
rfemur -41.8125 -95.2235 -13.0314
rtibia 135.488
rfoot 55.3977 -36.4908
rtoes 54.5257
lfemur -32.863 1.79623 -20.6394
ltibia 37.8743
lfoot -6.16828 27.7185
ltoes 29.4891
346
root -1.35903 18.3617 -3.45234 -161.873 1.46921 -172.763
lowerback -9.75907 1.99919 5.13206
upperback -11.6983 4.83602 3.41324
thorax -6.91924 3.13229 0.804971
lowerneck -11.4115 2.68382 -2.05645
upperneck 42.1544 -1.97675 1.61108
head 17.4402 -2.9853 0.120117
rclavicle 1.47101e-014 5.32743e-014
rhumerus -364.179 -24.7463 370.048
rradius 17.1966
rwrist 36.8773
rhand -11.5033 358.549
rfingers 7.12502
rthumb 14.5356 -30.9215
lclavicle 1.47101e-014 5.32743e-014
lhumerus -2.34041 -6.60891 -4.44768
lradius 21.3458
lwrist -38.2744
lhand -25.8352 8.9277
lfingers 7.12502
lthumb 0.704957 38.9063
rfemur -19.3807 -93.3276 -35.1376
rtibia 134.469
rfoot 53.3741 -38.7359
rtoes 55.0921
lfemur -32.0119 1.86829 -21.0512
ltibia 37.8318
lfoot -5.76199 27.2992
ltoes 28.9361
347
root -1.3486 18.3438 -3.52861 -162.206 1.36758 -173.142
lowerback -9.34886 1.81569 4.55594
upperback -11.5753 4.57199 3.46263
thorax -7.042 3.01494 1.14348
lowerneck -11.1868 2.83691 -1.73572
upperneck 42.4511 -1.89143 1.32497
head 17.5477 -2.98959 -0.0719211
rclavicle -1.49089e-014 -7.95139e-016
rhumerus -361.635 -33.8554 368.483
rradius 16.9358
rwrist 41.6651
rhand -10.689 357.568
rfingers 7.12502
rthumb 15.3201 -31.8445
lclavicle -1.49089e-014 -7.95139e-016
lhumerus -1.33702 -4.71348 -4.84447
lradius 20.6733
lwrist -37.5636
lhand -25.9396 10.7029
lfingers 7.12502
lthumb 0.604088 40.6818
rfemur 29.5011 -92.8845 -83.5868
rtibia 133.455
rfoot 51.1731 -40.7443
rtoes 55.179
lfemur -31.3668 2.01774 -21.4298
ltibia 37.8799
lfoot -5.46628 26.8839
ltoes 29.0126
348
root -1.32961 18.3253 -3.59229 -162.496 1.45166 -173.755
lowerback -8.74604 1.61036 3.61596
upperback -11.4483 4.27063 3.46067
thorax -7.27776 2.8919 1.6212
lowerneck -10.9928 2.95528 -1.64787
upperneck 42.4408 -1.74357 1.23295
head 17.4848 -2.94247 -0.105646
rclavicle 1.799e-014 1.86858e-014
rhumerus -358.447 -42.7029 365.704
rradius 16.7106
rwrist 45.7336
rhand -10.7103 357.567
rfingers 7.12502
rthumb 15.2996 -31.8468
lclavicle 1.799e-014 1.86858e-014
lhumerus -0.592436 -3.3661 -5.34728
lradius 20.2952
lwrist -35.9058
lhand -26.2982 12.0588
lfingers 7.12502
lthumb 0.257755 42.0384
rfemur 62.7204 -94.5068 -116.561
rtibia 132.473
rfoot 45.4819 -46.2801
rtoes 57.2258
lfemur -30.95 1.81997 -21.9983
ltibia 38.0544
lfoot -4.88833 26.9815
ltoes 27.4424
349
root -1.31669 18.305 -3.65132 -162.855 1.27416 -174.222
lowerback -8.01919 1.39499 2.96593
upperback -11.1613 3.90059 3.51904
thorax -7.39088 2.70232 2.00766
lowerneck -11.5196 3.06254 -1.82578
upperneck 42.6876 -1.59505 1.36699
head 17.7672 -2.89088 0.00276444
rclavicle -4.37326e-014 -5.24792e-014
rhumerus -355.897 -45.1331 363.587
rradius 17.0237
rwrist 43.0673
rhand -11.2049 356.608
rfingers 7.12502
rthumb 14.8231 -32.8419
lclavicle -4.37326e-014 -5.24792e-014
lhumerus 0.0138584 -1.76856 -5.64339
lradius 19.9739
lwrist -34.3723
lhand -26.1277 14.3958
lfingers 7.12502
lthumb 0.422398 44.3751
rfemur 78.4923 -96.4441 -131.744
rtibia 131.336
rfoot 35.6425 -52.4476
rtoes 59.775
lfemur -30.5564 1.54118 -22.3814
ltibia 38.2586
lfoot -3.35844 27.2212
ltoes 24.2435
350
root -1.30734 18.2836 -3.70613 -163.257 0.736644 -174.47
lowerback -7.17024 1.15228 2.75893
upperback -11.0439 3.52896 3.47259
thorax -7.73403 2.48872 2.03212
lowerneck -11.4274 3.15787 -1.71569
upperneck 42.8098 -1.64116 1.53089
head 17.8194 -2.89239 0.0430143
rclavicle 2.88238e-015 4.01545e-014
rhumerus -353.852 -47.4402 361.594
rradius 17.1942
rwrist 41.164
rhand -11.7458 356.316
rfingers 7.12502
rthumb 14.302 -33.1711
lclavicle 2.88238e-015 4.01545e-014
lhumerus 0.842605 -0.926397 -5.98502
lradius 19.8046
lwrist -32.8659
lhand -26.2323 17.4342
lfingers 7.12502
lthumb 0.321375 47.4137
rfemur 89.7011 -98.1215 -141.892
rtibia 130.063
rfoot 20.4882 -57.2007
rtoes 61.9283
lfemur -30.1318 1.34813 -22.4816
ltibia 38.4961
lfoot -2.97994 27.144
ltoes 24.5298
351
root -1.29303 18.2764 -3.76631 -163.579 0.2871 -174.71
lowerback -6.48163 0.973206 2.47515
upperback -10.8845 3.22423 3.39946
thorax -7.94365 2.31408 2.08826
lowerneck -11.3056 3.19877 -1.60476
upperneck 42.8395 -1.75195 1.71914
head 17.8112 -2.90518 0.0885794
rclavicle 2.48481e-015 -4.96962e-014
rhumerus -352.038 -50.2393 359.541
rradius 17.2984
rwrist 40.5929
rhand -12.3083 356.948
rfingers 7.12502
rthumb 13.7599 -32.5768
lclavicle 2.48481e-015 -4.96962e-014
lhumerus 1.77996 1.61334 -5.85309
lradius 19.4304
lwrist -33.3035
lhand -26.7323 19.5457
lfingers 7.12502
lthumb -0.161514 49.5254
rfemur 90.4074 -101.565 -141.59
rtibia 128.565
rfoot 25.7585 -55.6135
rtoes 60.6341
lfemur -29.7584 1.23082 -22.6013
ltibia 38.7151
lfoot -2.45002 27.0943
ltoes 24.2813
352
root -1.27784 18.2681 -3.82453 -163.86 0.0446054 -174.97
lowerback -6.03936 0.938789 2.11646
upperback -10.3472 2.99626 3.30682
thorax -7.59343 2.15034 2.19204
lowerneck -11.9637 3.07135 -1.38826
upperneck 42.662 -1.82305 1.69395
head 17.8835 -2.82803 0.0405744
rclavicle -1.36167e-014 -6.48038e-014
rhumerus -350.193 -53.8585 357.288
rradius 17.3537
rwrist 41.1515
rhand -12.5153 358.374
rfingers 7.12502
rthumb 13.5604 -31.1641
lclavicle -1.36167e-014 -6.48038e-014
lhumerus 2.56761 5.99105 -5.22583
lradius 19.0391
lwrist -34.7731
lhand -27.3827 21.1564
lfingers 7.12502
lthumb -0.789688 51.1346
rfemur 91.8761 -104.976 -142.11
rtibia 126.991
rfoot 26.4002 -55.2452
rtoes 59.833
lfemur -29.4157 1.07251 -22.7719
ltibia 38.9582
lfoot -2.76624 27.026
ltoes 25.1992
353
root -1.26413 18.2534 -3.87663 -164.1 -0.147928 -175.221
lowerback -5.42697 0.808264 1.75621
upperback -9.93595 2.69711 3.34241
thorax -7.49047 1.97105 2.42329
lowerneck -12.3477 3.08168 -1.30848
upperneck 42.3901 -1.62334 1.63017
head 17.8164 -2.68017 0.0503742
rclavicle -5.41688e-015 -6.63941e-014
rhumerus -348.189 -56.9426 354.824
rradius 17.4491
rwrist 42.8121
rhand -12.8205 360.297
rfingers 7.12502
rthumb 13.2662 -29.261
lclavicle -5.41688e-015 -6.63941e-014
lhumerus 2.70508 9.3957 -4.6672
lradius 18.7618
lwrist -35.3021
lhand -28.8361 21.8386
lfingers 7.12502
lthumb -2.19345 51.8071
rfemur 93.8209 -108.312 -143.054
rtibia 125.322
rfoot 18.9422 -56.9369
rtoes 60.6087
lfemur -29.1591 0.705994 -22.9336
ltibia 39.2266
lfoot -3.58345 27.217
ltoes 26.8377
354
root -1.25082 18.2369 -3.93203 -164.379 -0.509476 -175.334
lowerback -4.47014 0.588696 1.62485
upperback -9.93872 2.39704 3.38414
thorax -8.03881 1.812 2.51648
lowerneck -11.998 3.20287 -1.37325
upperneck 42.1946 -1.48577 1.81788
head 17.6049 -2.6112 0.180167
rclavicle 2.43014e-014 -3.18055e-015
rhumerus -347.159 -58.4681 353.114
rradius 17.5128
rwrist 44.401
rhand -13.5374 362.123
rfingers 7.12502
rthumb 12.5751 -27.4789
lclavicle 2.43014e-014 -3.18055e-015
lhumerus 2.64625 11.8178 -4.08203
lradius 18.5633
lwrist -35.9649
lhand -30.3022 21.9789
lfingers 7.12502
lthumb -3.60933 51.9281
rfemur 95.6316 -111.477 -143.519
rtibia 123.431
rfoot 12.0616 -57.6133
rtoes 61.1737
lfemur -28.9065 0.136491 -22.9049
ltibia 39.5695
lfoot -4.04022 27.5265
ltoes 27.4567
